<?xml version="1.0" encoding="utf-8" ?><svg xmlns="http://www.w3.org/2000/svg" xmlns:xlink="http://www.w3.org/1999/xlink" width="803" height="311" viewBox="0 0 803 311"><path fill="#E40A3E" d="M190.52 37.7285C198.01 36.7993 198.198 43.701 197.329 49.2993C193.228 75.7278 176.319 99.1324 164.735 123.027C158.355 135.991 152.847 149.368 148.248 163.067C142.828 179.147 136.067 205.051 144.175 221.263C146.973 226.859 151.765 231.975 157.843 233.94C162.384 235.408 167.518 234.857 172.05 233.648C198.023 226.724 211.978 196.876 229.596 178.742C234.931 173.251 240.884 168.897 247.701 165.435C255.645 161.4 265.161 159.205 273.869 162.087C300.265 170.822 281.546 214.195 290.537 231.74C292.443 235.461 295.805 238.14 299.772 239.392C306.141 241.402 312.499 239.067 318.171 236.082C342.337 223.363 344.292 190.586 351.542 167.541C353.373 161.721 356.846 151.533 362.632 148.676C364.402 147.802 366.809 147.804 368.644 148.471C370.642 149.198 371.866 150.971 372.435 152.954C373.359 156.175 373.028 159.902 372.964 163.229C372.807 171.367 372.181 179.284 371.312 187.368C370.674 193.314 369.656 199.441 369.748 205.421C369.795 208.522 370.216 212.035 371.611 214.848C372.386 216.411 373.773 218.127 375.52 218.635C377.145 219.107 379.562 217.928 381.007 217.199C401.425 206.903 405.639 154.935 425.737 143.826C428.799 142.133 432.735 141.21 436.149 142.263C445.148 145.042 447.581 163.503 451.733 171.354C459.68 186.382 481.525 173.559 494.62 177.817C507.52 182.013 501.975 216.733 507.837 228.078C509.951 232.169 513.641 235.761 518.097 237.126C541.44 244.277 560.085 201.307 569.036 185.616C572.527 179.495 576.292 173.273 581.256 168.22C590.145 159.171 600.139 153.629 610.888 147.173C645.612 126.316 651.023 116.522 671.177 81.3255C677.227 70.76 691.284 43.4259 701.547 38.2166C702.703 37.6299 704.264 37.0893 705.546 37.5737C706.548 37.9519 707.182 38.9171 707.546 39.8741C709.466 44.9263 707.78 57.5913 706.368 62.8417C705.585 65.752 704.349 68.5136 703.15 71.2712C702.697 72.772 699.865 78.3619 699.034 80.0221C695.78 86.5486 692.435 93.0299 689.001 99.4642C674.731 126.414 658.06 159.143 653.798 189.338C652.829 205.342 650.522 213.148 658.946 226.65C670.196 244.682 703.452 226.841 708.053 232.871C709.427 241.123 687.585 248.9 681.054 250.826C660.128 256.997 645.918 242.978 629.955 232.359C616.679 223.528 604.073 235.508 592.521 241.374C584.707 245.312 576.534 248.494 568.115 250.879C551.119 255.78 518.376 258.428 501.939 249.997C481.572 239.549 468.725 209.972 448.497 198.37C422.348 183.372 413.158 216.004 405.697 233.852C401.42 244.132 387.474 250.632 377.257 253.213C360.688 258.096 353.929 257.49 338.78 249.257C332.079 252.933 323.557 257.17 315.893 257.939C305.905 258.941 294.117 259.205 284.843 254.974C280.271 252.888 275.88 249.787 271.304 247.441C268.727 248.464 266.065 250.424 263.509 251.638C254.875 255.737 246.498 257.079 237.05 257.638C221.83 258.539 210.799 258.818 198.236 248.948C175.607 253.559 152.753 257.082 132.857 242.869C127.271 238.879 119.899 232.433 113.872 230.031C100.966 225.651 87.6019 237.786 76.1711 243.318C65.7599 248.356 56.2992 245.895 50.7182 235.236C47.4264 228.949 49.132 213.254 49.7839 206.096C50.0788 202.858 52.0439 197.717 53.182 194.469C65.1409 158.015 98.749 151.635 124.803 129.488C146.41 111.121 158.056 80.5185 173.376 57.1791C177.83 50.3929 182.773 41.1768 190.52 37.7285Z"/><path fill="#E40A3E" d="M503.72 125.649C515.772 123.703 532.349 133.496 521.066 146.842C517.024 151.624 510.944 153.653 504.785 153.966C498.434 152.576 483.189 146.497 482.481 138.517C481.622 128.827 496.61 126.502 503.72 125.649Z"/></svg>